<svg width="26" height="22" viewBox="0 0 26 22" fill="none" xmlns="http://www.w3.org/2000/svg">
<path d="M19.25 20C19.25 17.9288 16.4512 16.25 13 16.25C9.54875 16.25 6.75 17.9288 6.75 20M24.25 16.25C24.25 14.7125 22.7075 13.3913 20.5 12.8125M1.75 16.25C1.75 14.7125 3.2925 13.3913 5.5 12.8125M20.5 7.795C20.8703 7.46762 21.1723 7.07025 21.3885 6.62575C21.6047 6.18125 21.7309 5.6984 21.7598 5.20495C21.7887 4.71151 21.7198 4.21722 21.5571 3.7505C21.3943 3.28378 21.1408 2.85385 20.8113 2.48543C20.4818 2.11701 20.0826 1.81738 19.6369 1.60376C19.1911 1.39014 18.7076 1.26675 18.214 1.24069C17.7204 1.21463 17.2265 1.28641 16.7607 1.4519C16.2949 1.61739 15.8665 1.87334 15.5 2.205M5.5 7.795C4.76537 7.13019 4.3237 6.20166 4.27146 5.21225C4.21922 4.22284 4.56066 3.25297 5.2212 2.51449C5.88173 1.77601 6.80768 1.32895 7.79676 1.27096C8.78585 1.21297 9.7577 1.54877 10.5 2.205M13 12.5C12.5075 12.5 12.0199 12.403 11.5649 12.2146C11.11 12.0261 10.6966 11.7499 10.3483 11.4017C10.0001 11.0534 9.72391 10.64 9.53545 10.1851C9.347 9.7301 9.25 9.24246 9.25 8.75C9.25 8.25755 9.347 7.76991 9.53545 7.31494C9.72391 6.85997 10.0001 6.44657 10.3483 6.09835C10.6966 5.75013 11.11 5.47391 11.5649 5.28546C12.0199 5.097 12.5075 5 13 5C13.9946 5 14.9484 5.39509 15.6517 6.09835C16.3549 6.80161 16.75 7.75544 16.75 8.75C16.75 9.74457 16.3549 10.6984 15.6517 11.4017C14.9484 12.1049 13.9946 12.5 13 12.5Z" stroke="#CAFF33" stroke-width="2.16667" stroke-linecap="round" stroke-linejoin="round"/>
</svg>
