<svg width="15" height="26" viewBox="0 0 15 26" fill="none" xmlns="http://www.w3.org/2000/svg">
<path d="M7.67343 11.6398C4.56716 10.8325 3.56823 9.99775 3.56823 8.69777C3.56823 7.20621 4.95031 6.16622 7.26291 6.16622C9.20604 6.16622 10.1776 6.90516 10.5334 8.08199C10.6976 8.62935 11.1492 9.03987 11.7239 9.03987H12.1344C13.0376 9.03987 13.6807 8.15041 13.366 7.302C12.7913 5.68728 11.4502 4.34625 9.31552 3.82625V2.88206C9.31552 1.74628 8.39869 0.829453 7.26291 0.829453C6.12714 0.829453 5.21031 1.74628 5.21031 2.88206V3.7852C2.55561 4.35993 0.420898 6.08412 0.420898 8.72514C0.420898 11.8861 3.03455 13.4598 6.85239 14.3766C10.2734 15.1977 10.9576 16.4019 10.9576 17.6745C10.9576 18.6187 10.2871 20.1239 7.26291 20.1239C5.00505 20.1239 3.84191 19.3166 3.39033 18.1671C3.18507 17.6334 2.71982 17.2503 2.15877 17.2503H1.77562C0.858787 17.2503 0.215638 18.1808 0.557739 19.0292C1.33773 20.9313 3.1577 22.0534 5.21031 22.4913V23.4081C5.21031 24.5439 6.12714 25.4607 7.26291 25.4607C8.39869 25.4607 9.31552 24.5439 9.31552 23.4081V22.5186C11.9839 22.0123 14.1049 20.466 14.1049 17.6608C14.1049 13.7745 10.7797 12.4472 7.67343 11.6398Z" fill="#CAFF33"/>
</svg>
