<svg width="26" height="26" viewBox="0 0 26 26" fill="none" xmlns="http://www.w3.org/2000/svg">
<path fill-rule="evenodd" clip-rule="evenodd" d="M20.583 23.2917H6.49967C5.49406 23.2917 4.52964 22.8922 3.81856 22.1811C3.10749 21.47 2.70801 20.5056 2.70801 19.5V5.35492C2.70801 4.199 3.85201 3.46559 4.85842 3.81442C5.00251 3.86425 5.14334 3.93684 5.27767 4.03325L5.46726 4.16867C5.92839 4.49587 6.48004 4.67118 7.04546 4.67021C7.61087 4.66923 8.16192 4.49203 8.62192 4.16325C9.26763 3.70372 10.0405 3.45679 10.833 3.45679C11.6255 3.45679 12.3984 3.70372 13.0441 4.16325C13.5041 4.49203 14.0551 4.66923 14.6206 4.67021C15.186 4.67118 15.7376 4.49587 16.1988 4.16867L16.3883 4.03325C17.4641 3.26409 18.958 4.03325 18.958 5.35492V13.5417H22.7497C22.9652 13.5417 23.1718 13.6273 23.3242 13.7796C23.4766 13.932 23.5622 14.1387 23.5622 14.3542V20.3125C23.5622 21.1026 23.2483 21.8604 22.6896 22.4191C22.1309 22.9778 21.3731 23.2917 20.583 23.2917ZM19.2288 15.1667V20.3125C19.2288 20.6717 19.3715 21.0161 19.6255 21.27C19.8794 21.524 20.2239 21.6667 20.583 21.6667C20.9422 21.6667 21.2866 21.524 21.5405 21.27C21.7945 21.0161 21.9372 20.6717 21.9372 20.3125V15.1667H19.2288ZM14.6247 10.5625C14.6247 10.347 14.5391 10.1404 14.3867 9.98798C14.2343 9.83561 14.0277 9.75 13.8122 9.75H7.31217C7.09669 9.75 6.89002 9.83561 6.73765 9.98798C6.58528 10.1404 6.49967 10.347 6.49967 10.5625C6.49967 10.778 6.58528 10.9847 6.73765 11.137C6.89002 11.2894 7.09669 11.375 7.31217 11.375H13.8122C14.0277 11.375 14.2343 11.2894 14.3867 11.137C14.5391 10.9847 14.6247 10.778 14.6247 10.5625ZM13.5413 13.8125C13.5413 13.597 13.4557 13.3904 13.3034 13.238C13.151 13.0856 12.9443 13 12.7288 13H7.31217C7.09669 13 6.89002 13.0856 6.73765 13.238C6.58528 13.3904 6.49967 13.597 6.49967 13.8125C6.49967 14.028 6.58528 14.2347 6.73765 14.387C6.89002 14.5394 7.09669 14.625 7.31217 14.625H12.7288C12.9443 14.625 13.151 14.5394 13.3034 14.387C13.4557 14.2347 13.5413 14.028 13.5413 13.8125ZM13.8122 16.25C14.0277 16.25 14.2343 16.3356 14.3867 16.488C14.5391 16.6404 14.6247 16.847 14.6247 17.0625C14.6247 17.278 14.5391 17.4847 14.3867 17.637C14.2343 17.7894 14.0277 17.875 13.8122 17.875H7.31217C7.09669 17.875 6.89002 17.7894 6.73765 17.637C6.58528 17.4847 6.49967 17.278 6.49967 17.0625C6.49967 16.847 6.58528 16.6404 6.73765 16.488C6.89002 16.3356 7.09669 16.25 7.31217 16.25H13.8122Z" fill="#CAFF33"/>
</svg>
