<svg width="26" height="26" viewBox="0 0 26 26" fill="none" xmlns="http://www.w3.org/2000/svg">
<path d="M19.5 20.5833H6.5V19.0666C6.5 16.8999 10.8333 15.7083 13 15.7083C15.1667 15.7083 19.5 16.8999 19.5 19.0666M13 7.58325C13.862 7.58325 14.6886 7.92566 15.2981 8.53516C15.9076 9.14465 16.25 9.9713 16.25 10.8333C16.25 11.6952 15.9076 12.5219 15.2981 13.1313C14.6886 13.7408 13.862 14.0833 13 14.0833C12.138 14.0833 11.3114 13.7408 10.7019 13.1313C10.0924 12.5219 9.75 11.6952 9.75 10.8333C9.75 9.9713 10.0924 9.14465 10.7019 8.53516C11.3114 7.92566 12.138 7.58325 13 7.58325ZM13 3.24992C13.2873 3.24992 13.5629 3.36406 13.766 3.56722C13.9692 3.77038 14.0833 4.04593 14.0833 4.33325C14.0833 4.62057 13.9692 4.89612 13.766 5.09928C13.5629 5.30245 13.2873 5.41659 13 5.41659C12.7127 5.41659 12.4371 5.30245 12.234 5.09928C12.0308 4.89612 11.9167 4.62057 11.9167 4.33325C11.9167 4.04593 12.0308 3.77038 12.234 3.56722C12.4371 3.36406 12.7127 3.24992 13 3.24992ZM20.5833 3.24992H16.055C15.6 1.99325 14.4083 1.08325 13 1.08325C11.5917 1.08325 10.4 1.99325 9.945 3.24992H5.41667C4.84203 3.24992 4.29093 3.47819 3.8846 3.88452C3.47827 4.29085 3.25 4.84195 3.25 5.41659V20.5833C3.25 21.1579 3.47827 21.709 3.8846 22.1153C4.29093 22.5216 4.84203 22.7499 5.41667 22.7499H20.5833C21.158 22.7499 21.7091 22.5216 22.1154 22.1153C22.5217 21.709 22.75 21.1579 22.75 20.5833V5.41659C22.75 4.84195 22.5217 4.29085 22.1154 3.88452C21.7091 3.47819 21.158 3.24992 20.5833 3.24992Z" fill="#CAFF33"/>
</svg>
