<svg width="26" height="26" viewBox="0 0 26 26" fill="none" xmlns="http://www.w3.org/2000/svg">
<path d="M19.5 20.5833H6.5V19.0666C6.5 16.9 10.8333 15.7083 13 15.7083C15.1667 15.7083 19.5 16.9 19.5 19.0666M13 7.58331C13.862 7.58331 14.6886 7.92572 15.2981 8.53522C15.9076 9.14471 16.25 9.97136 16.25 10.8333C16.25 11.6953 15.9076 12.5219 15.2981 13.1314C14.6886 13.7409 13.862 14.0833 13 14.0833C12.138 14.0833 11.3114 13.7409 10.7019 13.1314C10.0924 12.5219 9.75 11.6953 9.75 10.8333C9.75 9.97136 10.0924 9.14471 10.7019 8.53522C11.3114 7.92572 12.138 7.58331 13 7.58331ZM13 3.24998C13.2873 3.24998 13.5629 3.36412 13.766 3.56728C13.9692 3.77045 14.0833 4.046 14.0833 4.33331C14.0833 4.62063 13.9692 4.89618 13.766 5.09935C13.5629 5.30251 13.2873 5.41665 13 5.41665C12.7127 5.41665 12.4371 5.30251 12.234 5.09935C12.0308 4.89618 11.9167 4.62063 11.9167 4.33331C11.9167 4.046 12.0308 3.77045 12.234 3.56728C12.4371 3.36412 12.7127 3.24998 13 3.24998ZM20.5833 3.24998H16.055C15.6 1.99331 14.4083 1.08331 13 1.08331C11.5917 1.08331 10.4 1.99331 9.945 3.24998H5.41667C4.84203 3.24998 4.29093 3.47825 3.8846 3.88458C3.47827 4.29091 3.25 4.84201 3.25 5.41665V20.5833C3.25 21.1579 3.47827 21.709 3.8846 22.1154C4.29093 22.5217 4.84203 22.75 5.41667 22.75H20.5833C21.158 22.75 21.7091 22.5217 22.1154 22.1154C22.5217 21.709 22.75 21.1579 22.75 20.5833V5.41665C22.75 4.84201 22.5217 4.29091 22.1154 3.88458C21.7091 3.47825 21.158 3.24998 20.5833 3.24998Z" fill="#CAFF33" fill-opacity="0.5"/>
</svg>
