<svg width="22" height="21" viewBox="0 0 22 21" fill="none" xmlns="http://www.w3.org/2000/svg">
<path d="M11.6927 16.8492C11.6927 14.6826 12.8844 12.7326 14.6177 11.7576C13.2094 11.2159 11.476 10.8909 9.52604 10.8909C4.75938 10.8909 0.859375 12.8409 0.859375 15.2242V17.3909H11.6927V16.8492ZM17.651 13.0576C15.5927 13.0576 13.8594 14.7909 13.8594 16.8492C13.8594 18.9076 15.5927 20.6409 17.651 20.6409C19.7094 20.6409 21.4427 18.9076 21.4427 16.8492C21.4427 14.7909 19.7094 13.0576 17.651 13.0576ZM13.8594 4.3909C13.8594 6.77424 11.9094 8.72424 9.52604 8.72424C7.14271 8.72424 5.19271 6.77424 5.19271 4.3909C5.19271 2.00757 7.14271 0.0575714 9.52604 0.0575714C11.9094 0.0575714 13.8594 2.00757 13.8594 4.3909Z" fill="#CAFF33"/>
</svg>
