<svg width="17" height="17" viewBox="0 0 17 17" fill="none" xmlns="http://www.w3.org/2000/svg">
<path d="M1.63333 4.9H1.86667C2.765 4.9 3.5 5.635 3.5 6.53333V14.7C3.5 15.5983 2.765 16.3333 1.86667 16.3333H1.63333C0.735 16.3333 0 15.5983 0 14.7V6.53333C0 5.635 0.735 4.9 1.63333 4.9ZM8.16667 0C9.065 0 9.8 0.735 9.8 1.63333V14.7C9.8 15.5983 9.065 16.3333 8.16667 16.3333C7.26833 16.3333 6.53333 15.5983 6.53333 14.7V1.63333C6.53333 0.735 7.26833 0 8.16667 0ZM14.7 9.33333C15.5983 9.33333 16.3333 10.0683 16.3333 10.9667V14.7C16.3333 15.5983 15.5983 16.3333 14.7 16.3333C13.8017 16.3333 13.0667 15.5983 13.0667 14.7V10.9667C13.0667 10.0683 13.8017 9.33333 14.7 9.33333Z" fill="#CAFF33"/>
</svg>
